<svg xmlns="http://www.w3.org/2000/svg" width="550.051" height="402.457" viewBox="0 0 550.051 402.457">
  <g id="Component_44_1" data-name="Component 44 – 1" transform="translate(1.384)">
    <text id="_71.2" data-name="71.2" transform="translate(188.667 166)" fill="#8a8080" font-size="14" font-family="Helvetica"><tspan x="-27.248" y="0">71.2</tspan></text>
    <text id="_138" data-name="138" transform="translate(303.667 120)" fill="#bb6969" font-size="14" font-family="Helvetica"><tspan x="-23.358" y="0">138</tspan></text>
    <text id="_246.5" data-name="246.5" transform="translate(424.667 80)" fill="#e34545" font-size="14" font-family="Helvetica"><tspan x="-35.034" y="0">246.5</tspan></text>
    <text id="_348.5" data-name="348.5" transform="translate(548.667 11)" fill="#f11616" font-size="14" font-family="Helvetica"><tspan x="-35.034" y="0">348.5</tspan></text>
    <path id="Path_138" data-name="Path 138" d="M2549.333,3125.333l60.917-39.833L2728.667,2968l114-54.667,116-31.333L3076,2804.667" transform="translate(-2549.333 -2781)" fill="none" stroke="#c17474" stroke-linecap="round" stroke-width="2"/>
    <path id="Path_139" data-name="Path 139" d="M1797.073,2820.207V2724" transform="translate(-1735.906 -2418.75)" fill="none" stroke="#4d4d4d" stroke-width="1" opacity="0.57"/>
    <path id="Path_140" data-name="Path 140" d="M1797.26,2937.124V2724" transform="translate(-1619.593 -2535.667)" fill="none" stroke="#796d6d" stroke-width="1" opacity="0.57"/>
    <path id="Path_141" data-name="Path 141" d="M1797.093,2994.79V2724" transform="translate(-1502.926 -2592.333)" fill="none" stroke="#d27575" stroke-width="1" opacity="0.57"/>
    <path id="Path_142" data-name="Path 142" d="M1797,3025.123V2724" transform="translate(-1387.76 -2623.667)" fill="none" stroke="#d93434" stroke-width="1" opacity="0.57"/>
    <path id="Path_143" data-name="Path 143" d="M1797,3101.789V2724" transform="translate(-1270.76 -2700.333)" fill="none" stroke="#f61919" stroke-width="1" opacity="0.57"/>
    <text id="_23.4" data-name="23.4" transform="translate(74.667 237)" fill="#7f7f7f" font-size="14" font-family="Helvetica"><tspan x="-27.248" y="0">23.4</tspan></text>
  </g>
</svg>
