<svg id="Component_43_1" data-name="Component 43 – 1" xmlns="http://www.w3.org/2000/svg" width="572" height="455" viewBox="0 0 572 455">
  <text id="Млн." transform="translate(0 14)" font-size="12" font-family="Helvetica"><tspan x="0" y="0">Млн.</tspan></text>
  <text id="_" data-name="₽" transform="translate(29 15)" font-size="16" font-family=".HelveticaNeueDeskInterface-Regular, '.Helvetica Neue DeskInterface'"><tspan x="0" y="0">₽</tspan></text>
  <text id="_2013" data-name="2013" transform="translate(103 452)" fill="#242424" font-size="13" font-family="Helvetica"><tspan x="-28.92" y="0">2013</tspan></text>
  <text id="_2014" data-name="2014" transform="translate(223 451)" fill="#242424" font-size="13" font-family="Helvetica"><tspan x="-28.92" y="0">2014</tspan></text>
  <text id="_2015" data-name="2015" transform="translate(339 452)" fill="#242424" font-size="13" font-family="Helvetica"><tspan x="-28.92" y="0">2015</tspan></text>
  <text id="_2016" data-name="2016" transform="translate(453 452)" fill="#242424" font-size="13" font-family="Helvetica"><tspan x="-28.92" y="0">2016</tspan></text>
  <text id="_2017" data-name="2017" transform="translate(572 452)" fill="#242424" font-size="13" font-family="Helvetica"><tspan x="-28.92" y="0">2017</tspan></text>
  <path id="Path_111" data-name="Path 111" d="M1774,3068.786h526.3" transform="translate(-1744.556 -2655.329)" fill="none" stroke="#cfcfcf" stroke-width="1"/>
  <path id="Path_113" data-name="Path 113" d="M1770,3067.333v5.914" transform="translate(-1648.804 -2654.876)" fill="none" stroke="#cfcfcf" stroke-width="1"/>
  <path id="Path_114" data-name="Path 114" d="M1770,3067.333v5.914" transform="translate(-1534.445 -2654.876)" fill="none" stroke="#cfcfcf" stroke-width="1"/>
  <path id="Path_115" data-name="Path 115" d="M1770,3067.333v5.914" transform="translate(-1425.368 -2654.876)" fill="none" stroke="#cfcfcf" stroke-width="1"/>
  <path id="Path_116" data-name="Path 116" d="M1770,3067.333v5.914" transform="translate(-1309.292 -2654.876)" fill="none" stroke="#cfcfcf" stroke-width="1"/>
  <path id="Path_95" data-name="Path 95" d="M1797,3105.457V2724" transform="translate(-1767.556 -2693)" fill="none" stroke="#a5a5a5" stroke-width="1" opacity="0.57"/>
  <path id="Path_96" data-name="Path 96" d="M1797,3105.457V2724" transform="translate(-1706.524 -2693)" fill="none" stroke="#dcdcdc" stroke-width="1" opacity="0.57"/>
  <path id="Path_97" data-name="Path 97" d="M1797,3105.457V2724" transform="translate(-1650.441 -2693)" fill="none" stroke="#dcdcdc" stroke-width="1" opacity="0.57"/>
  <path id="Path_98" data-name="Path 98" d="M1797,3105.457V2724" transform="translate(-1589.76 -2692)" fill="none" stroke="#dcdcdc" stroke-width="1" opacity="0.57"/>
  <path id="Path_99" data-name="Path 99" d="M1797,3105.457V2724" transform="translate(-1530.625 -2693)" fill="none" stroke="#dcdcdc" stroke-width="1" opacity="0.57"/>
  <path id="Path_100" data-name="Path 100" d="M1797,3108.457V2724" transform="translate(-1473.593 -2693)" fill="none" stroke="#dcdcdc" stroke-width="1" opacity="0.57"/>
  <path id="Path_101" data-name="Path 101" d="M1798,3108.457V2724" transform="translate(-1417.108 -2693)" fill="none" stroke="#dcdcdc" stroke-width="1" opacity="0.57"/>
  <path id="Path_102" data-name="Path 102" d="M1797,3108.457V2724" transform="translate(-1358.426 -2695)" fill="none" stroke="#dcdcdc" stroke-width="1" opacity="0.57"/>
  <path id="Path_103" data-name="Path 103" d="M1800,3108.457V2724" transform="translate(-1302.941 -2696)" fill="none" stroke="#dcdcdc" stroke-width="1" opacity="0.57"/>
  <path id="Path_104" data-name="Path 104" d="M1797,3107.457V2724" transform="translate(-1241.26 -2694)" fill="none" stroke="#dcdcdc" stroke-width="1" opacity="0.57"/>
</svg>
