<svg xmlns="http://www.w3.org/2000/svg" width="729.667" height="636" viewBox="0 0 729.667 636">
  <g id="Component_41_1" data-name="Component 41 – 1" transform="translate(1)">
    <text id="Средний_уровень_счастья_в_стране" data-name="Средний уровень счастья в стране" transform="translate(276 19)" font-size="13" font-family="Helvetica"><tspan x="0" y="0">Средний уровень счастья в стране</tspan></text>
    <text id="Индекс_благополучия" data-name="Индекс
 благополучия" transform="translate(88 10)" font-size="13" font-family="Helvetica"><tspan x="-45.348" y="0">Индекс</tspan><tspan x="-88.264" y="19" xml:space="preserve"> благополучия</tspan></text>
    <text id="Линейная_регрессия" data-name="Линейная регрессия" transform="translate(600 21)" font-size="13" font-family="Helvetica"><tspan x="0" y="0">Линейная регрессия</tspan></text>
    <path id="Path_196" data-name="Path 196" d="M1770,3067.333v5.914" transform="translate(-1378.76 -2507.876)" fill="none" stroke="#787878" stroke-width="1"/>
    <path id="Path_197" data-name="Path 197" d="M1770,3067.333v5.914" transform="translate(-1225.625 -2507.876)" fill="none" stroke="#8f8f8f" stroke-width="1"/>
    <path id="Path_198" data-name="Path 198" d="M1770,3067.333v5.914" transform="translate(-1067.292 -2507.876)" fill="none" stroke="#8f8f8f" stroke-width="1"/>
    <path id="Path_190" data-name="Path 190" d="M.271,644.154V0" transform="translate(84.513 521.5) rotate(-90)" fill="none" stroke="#dcdcdc" stroke-width="1" opacity="0.57"/>
    <path id="Path_204" data-name="Path 204" d="M4.771,644.154V0" transform="translate(84.513 429) rotate(-90)" fill="none" stroke="#dcdcdc" stroke-width="1" opacity="0.57"/>
    <path id="Path_205" data-name="Path 205" d="M1.1,644.154V0" transform="translate(84.513 328.333) rotate(-90)" fill="none" stroke="#dcdcdc" stroke-width="1" opacity="0.57"/>
    <path id="Path_206" data-name="Path 206" d="M1.771,644.154V0" transform="translate(84.513 232) rotate(-90)" fill="none" stroke="#dcdcdc" stroke-width="1" opacity="0.57"/>
    <path id="Path_207" data-name="Path 207" d="M0,644.154V0" transform="translate(84.513 133.229) rotate(-90)" fill="none" stroke="#dcdcdc" stroke-width="1" opacity="0.57"/>
    <text id="_6.5" data-name="6.5" transform="translate(57 527)" fill="#242424" font-size="13" font-family="Helvetica"><tspan x="-18.072" y="0">6.5</tspan></text>
    <text id="_7" data-name="7" transform="translate(57 426)" fill="#242424" font-size="13" font-family="Helvetica"><tspan x="-7.23" y="0">7</tspan></text>
    <text id="_7.5" data-name="7.5" transform="translate(59 333)" fill="#242424" font-size="13" font-family="Helvetica"><tspan x="-18.072" y="0">7.5</tspan></text>
    <text id="_8" data-name="8" transform="translate(59 233)" fill="#242424" font-size="13" font-family="Helvetica"><tspan x="-7.23" y="0">8</tspan></text>
    <text id="_8.5" data-name="8.5" transform="translate(61 137)" fill="#242424" font-size="13" font-family="Helvetica"><tspan x="-18.072" y="0">8.5</tspan></text>
    <text id="_5" data-name="5" transform="translate(115 593)" fill="#242424" font-size="13" font-family="Helvetica"><tspan x="-7.23" y="0">5</tspan></text>
    <text id="_10" data-name="10" transform="translate(242 593)" fill="#242424" font-size="13" font-family="Helvetica"><tspan x="-14.46" y="0">10</tspan></text>
    <text id="_15" data-name="15" transform="translate(396 593)" fill="#242424" font-size="13" font-family="Helvetica"><tspan x="-14.46" y="0">15</tspan></text>
    <text id="_20" data-name="20" transform="translate(551 593)" fill="#242424" font-size="13" font-family="Helvetica"><tspan x="-14.46" y="0">20</tspan></text>
    <text id="_25" data-name="25" transform="translate(710 593)" fill="#242424" font-size="13" font-family="Helvetica"><tspan x="-14.46" y="0">25</tspan></text>
    <path id="Path_193" data-name="Path 193" d="M1774,3068.786h644.154" transform="translate(-1689.487 -2509.329)" fill="none" stroke="#a4a4a4" stroke-width="1"/>
    <path id="Path_194" data-name="Path 194" d="M1770,3067.333v5.914" transform="translate(-1663.804 -2507.876)" fill="none" stroke="#818181" stroke-width="1"/>
    <path id="Path_195" data-name="Path 195" d="M1770,3067.333v5.914" transform="translate(-1533.445 -2507.876)" fill="none" stroke="#7e7e7e" stroke-width="1"/>
    <path id="Path_199" data-name="Path 199" d="M1770,3067.333v5.914" transform="translate(3151.846 -1248.586) rotate(90)" fill="none" stroke="#7e7e7e" stroke-width="1"/>
    <path id="Path_200" data-name="Path 200" d="M1770,3067.333v5.914" transform="translate(3151.846 -1345.586) rotate(90)" fill="none" stroke="#7e7e7e" stroke-width="1"/>
    <path id="Path_201" data-name="Path 201" d="M1770,3067.333v5.914" transform="translate(3151.846 -1442.586) rotate(90)" fill="none" stroke="#7e7e7e" stroke-width="1"/>
    <path id="Path_202" data-name="Path 202" d="M1770,3067.333v5.914" transform="translate(3151.846 -1539.586) rotate(90)" fill="none" stroke="#7e7e7e" stroke-width="1"/>
    <path id="Path_203" data-name="Path 203" d="M1770,3067.333v5.914" transform="translate(3151.846 -1636.586) rotate(90)" fill="none" stroke="#7e7e7e" stroke-width="1"/>
    <path id="Path_177" data-name="Path 177" d="M1797,3222.457V2724" transform="translate(-1712.557 -2663)" fill="none" stroke="#5a5a5a" stroke-width="1" opacity="0.57"/>
    <path id="Path_208" data-name="Path 208" d="M2566,3124.833h24" transform="translate(-2006 -3107.833)" fill="none" stroke="#ef4545" stroke-linecap="round" stroke-width="1"/>
    <circle id="Ellipse_83" data-name="Ellipse 83" cx="6.5" cy="6.5" r="6.5" transform="translate(255 7)" fill="#727272"/>
    <text id="_доля_третьего_сектора_в_рабочей_силе_Источник:_проект_Third_Sector_Impact_" data-name="«доля третьего сектора в рабочей силе (%)» 
Источник: проект «Third Sector Impact»" transform="translate(390 609)" font-size="13" font-family="Helvetica"><tspan x="-139.556" y="0">«доля третьего сектора в рабочей силе (%)» </tspan><tspan x="-119.907" y="24">Источник: проект «Third Sector Impact»</tspan></text>
  </g>
</svg>
