<svg xmlns="http://www.w3.org/2000/svg" width="181.79" height="72.383" viewBox="0 0 181.79 72.383"><text transform="translate(76.79 20.383)" font-size="25" font-family="Helvetica" letter-spacing="0.013em"><tspan x="0" y="0">Россия </tspan><tspan x="0" y="23">которая </tspan><tspan x="0" y="46">смогла</tspan></text><path d="M1982.705,544.653c.125-.069,2.6-1.043,3.384-1.492a59.119,59.119,0,0,1,6.743-2.023c1.873-.487,4.345-.936,4.345-.936s-.524.262-.262.262.337-.262.9-.262.974.15,1.236,0,.637-.6,1.049-.45a1.387,1.387,0,0,0,.9,0c.112-.037-.375.3.3,0s.787-.45,1.2-.487.974.15,1.273,0,.487-.112.6-.187,1.686-.262,2.884-.487a13.706,13.706,0,0,0,2.173-.562,9.205,9.205,0,0,1,1.124-.262v-.449h.562c.637,0,.412-.075,1.124-.262a7.923,7.923,0,0,0,1.086-.337c.3-.112.449-.225.675-.187s.3,0,.412.187.449-.187.449-.187a8.1,8.1,0,0,1,1.087-.225,2.356,2.356,0,0,1,.6,0,3.791,3.791,0,0,1,1.686-.262,10.881,10.881,0,0,0,2.06-.262,5.206,5.206,0,0,1,1.461-.562,29.407,29.407,0,0,0,3.9-.749c1.011-.3,1.386-.262,2.847-.6s1.91-.375,2.772-.562a12.164,12.164,0,0,1,2.585-.3,7.077,7.077,0,0,0,2.022,0c.375-.187.712-.075.9-.337s.225-.862.337-.412.375.3.487.412.6-.412.6-.412.075.075,0,.412-.412.637-.187.9.936.3.936.3l-.225.6s-.562.3.225,0,1.611-.562,1.8-.9.262-.337.3-.562-.374-.225,0-.337a5.01,5.01,0,0,0,1.761-.262,7.845,7.845,0,0,0,1.5-.787c.225-.075-.525.637-.525.637l-.974.412-1.348.337a2.8,2.8,0,0,0-.412.562c-.187.337-.487.3-.749.9s-.487.674-.562.974a.817.817,0,0,0,0,.6,10.781,10.781,0,0,1,.562,1.011c-.075,0-.824-.337-.824-.337l.262.6s-.674-.524.225,0a4.289,4.289,0,0,0,2.06.412c.337.075-.412.3-.749.449s-.412.037-.712.3a4.478,4.478,0,0,0-.6.6c-.187.225-.787,0,.787.3s1.76.412,2.06.412-.225,0-.974.225-.824-.262-1.086.225-.375.637-.187.637.037-.225.712-.337.337-.187,1.011-.3-.749-.449.824-.225a6.008,6.008,0,0,0,2.323,0l-1.312.225s-.936-.449-1.311,0a1.7,1.7,0,0,1-.974.637c-.412.15-.375-.075-.787.225a1.679,1.679,0,0,0-.487.45s-1.536,0-1.611.187.674-.449-.412.337-.9,1.049-1.424.9-5.432.262-5.432.262l-12.1,1.611-9.515,1.8-12.024,3.072-8.5,2.734a5.626,5.626,0,0,1-1.386.487h-1.8l-.262-.187a.332.332,0,0,0,0-.3c-.075-.187-.337-.262-.15-.375s.337-.225.15-.3a.555.555,0,0,0-.375,0s-.112-.45-.225-.45-.337-.3-.449,0-.712,0-.712,0l.449-.337a1.581,1.581,0,0,1,.262-.487c.112-.075.824-.075.449-.187s-.375-.225-.712-.262a3.631,3.631,0,0,1-.974-.337c-.15-.075-.037-.3-.524-.262s-.787-.337-1.011-.412-.824.187-.712,0,.6-.375.712-.262.6-.375.862,0,0,.375.674.262.674.375.974-.262a1.37,1.37,0,0,0,0-1.274c-.075-.075-.786-.412-.974,0s.075.487-.337.637-.363.037-.762,0,.013-.112-.437,0,.225-.375,0-.375,0-.487,0-.487h.187s-.3-.075,0-.225.7-.674.249-.674a4.286,4.286,0,0,0-1.148.262s1.573-.3,1.573-.262.637-.3.487-.337-.337.187-.487,0-.55-.375-.425-.524-.586-.3-.249-.45S1982.705,544.653,1982.705,544.653Z" transform="translate(-1981.543 -531.617)" fill="#fff"/><path d="M2027.378,637.535a3.084,3.084,0,0,0-1,.637,4.867,4.867,0,0,1-.562.6l-.15.262h.487l.225-.262a2.8,2.8,0,0,0,.45.262c.187.075.15-.112.375-.262s.449-.337.562-.337.225.337.225.337h.3c.112,0,.3-.075.412,0s.375.262.375.262l-.525.225h-.562l.562.3a2.393,2.393,0,0,0-.562.15c-.262.112-.1-.187-.611.187s-.738.262-.738.412a1.981,1.981,0,0,1-.262.562h.45s.375-.375.375,0-.412,0,.412,0,.787.075,1.086,0,.075.112.375,0,.262-.524.675-.262a1.866,1.866,0,0,0,.562.262c.15.075-.038-.3.3,0a1.024,1.024,0,0,0,.712.262,1,1,0,0,1,.3.15s-.562-.15-.787,0-.525.375-.525.375a2.431,2.431,0,0,0,.525,0c.075-.037-.525.337-.525.337h.525l-.225.262s.562-.375.712-.262a3.312,3.312,0,0,1,.3.262s.187.112,0,.3-.187.15-.3.262-.3.112-.712.225-.337-.15-.861,0-.6-.038-.675.187.075-.075.225,0,.45.187.225.262-.187-.112-.45,0a5.342,5.342,0,0,1-.525.262c-.6.262-.922.524-1.173.6a1.206,1.206,0,0,1-.55,0,5.477,5.477,0,0,0,.786.337c.112,0,1.086-.225.674,0a3.7,3.7,0,0,1-.674.3.517.517,0,0,0,.375.225c.225,0,.3-.3.3,0s.15.075,0,.45a4.43,4.43,0,0,1-.3.674c-.075.112-.861.187-.375.225a2.875,2.875,0,0,0,.674,0s.225-.187.262,0-.037.225,0,.337a.71.71,0,0,0,.15.225h.375s5.694-2.21,5.881-2.135,6.293-1.8,7.679-2.173,7.941-2.248,8.691-2.4,6.443-1.2,7.529-1.424,6.293-1.049,7.9-1.124,4.458-.6,5.432-.674,2.772-.262,3.671-.337.862-.075,1.124-.262.562-.412.3-.45-.787.187-.675,0,.337-.038.675-.3a3.688,3.688,0,0,1,.674-.524c.3-.15.375-.3.637-.3s.187.112.487,0,.412-.112.412-.262v-.674s.637-.412.637-.674-.862-.712,0-.9a1.963,1.963,0,0,0,1.161-.6s-.037-.075.225-.187.225-.225.45-.3.524-.187.374-.187h-1.049s-.225-.3.675-.487.787-.262,1.049-.262.3.187.449,0,.225,0,.337-.337.037-.787,0-.562-.787.225-.787.225l.187-.525a6.283,6.283,0,0,0-.862.525c-.337.262-.187.337-.824.337h-1.124v-.562a2.642,2.642,0,0,0,.562,0c.187-.037.562-.187.337-.3s-.6-.262-.6-.262a1.079,1.079,0,0,1,.262-.337,1.749,1.749,0,0,0,.337-.487l-.9.487-.262-.487s.337-.262.262-.412.037-.787,0-.787-1.236-.187-1.311,0-.674.337-.674.337l-.45.449h-.674l-.675-.449-3.821.3-14.31,1.8-8.054,1.536-15.321,4.008-6.556,2.173Z" transform="translate(-2020.708 -616.215)" fill="#0093d8"/><path d="M2041.783,725.327l-.528.24.528.262s-.865-.262-.528,0,.082.187.528.337a3.334,3.334,0,0,1,.746.262,4.469,4.469,0,0,0,.562.262l-.187.187h-.6l-.521.262a1.58,1.58,0,0,1,.521,0c.412.037.187-.075.6,0s.637-.187.937-.262.075-.112.637-.187a5.073,5.073,0,0,0,.937-.262c.337-.075.225.187.936-.262s.562-.637.862-.6a.669.669,0,0,1,.449.262.324.324,0,0,1-.225.337c-.262.112-.412.112-.562.262s.075.262-.524.45a11.336,11.336,0,0,0-1.236.487s-.225-.075-.337,0-.225-.3-.3,0-.075.487-.187.524-.974.15-.974.15a.85.85,0,0,0-.637,0,9.207,9.207,0,0,1-1.086.412,3.327,3.327,0,0,0,.937,0c.487-.075.487.262,1.049,0s.3-.449.9-.562.562-.225.937-.262.3.15.674,0,.674-.337.786-.262.037.487-.187.524a2.946,2.946,0,0,1-.6,0s-1.536.674-1.8.749-.712.225-.974.3-.449.187-.786.3-.48.112-.746.187a9.607,9.607,0,0,0-1.24.187c-.15.112.824.3,1.049.187s.262.112.937-.187.412-.038,1.049-.375.112-.45.9-.6a12.611,12.611,0,0,0,1.611-.187,1.683,1.683,0,0,1,.786-.225c.187,0,.337.225.337.225s.637-.375-.337.187a5.2,5.2,0,0,1-1.461.6c-.749.3-1.461.337-1.573.562a.828.828,0,0,1-.525.412c-.225.075-.3.15-.637.262a3.759,3.759,0,0,0-.9.375c-.041.075.484-.15.746,0s.749.112.562.3-.524-.262-.412.487.674.562.412.824-.187.45-.187.45.075-.187.187,0,.187.187.487.187.112-.337.262,0-.225.262,0,.412a.5.5,0,0,0,.637,0c.15-.15.112-.749.3-.412s-.038.225.337.412.487.112.562.262.075.112.412,0,.037.15,1.124-.262a11.964,11.964,0,0,0,2.922-1.049,19.3,19.3,0,0,1,4.083-1.311,18.088,18.088,0,0,1,2.959-.674,3.233,3.233,0,0,1,.862,0,1.16,1.16,0,0,0,.936,0,40.034,40.034,0,0,1,4.308-1.648c1.273-.375,3.146-.824,4.233-1.011s4.045-.449,5.282-.637,3.6-.861,4.533-1.124a8.088,8.088,0,0,1,1.5-.262c.375-.075.3-.337.862-.524a4.976,4.976,0,0,1,1.161-.225c.262-.037.3.112.6,0s.188.075.487,0,.187-.225.6-.225.674.225.824.225-.337.037.636-.225a8.074,8.074,0,0,1,1.573-.3,1.68,1.68,0,0,0,.937-.225,7.57,7.57,0,0,1,.937-.562c.3-.112.524-.15.6-.3s-.262-.225,0-.45.15-.487.412-.637a3.5,3.5,0,0,1,.75-.375c.262-.075.375.037.637,0s.15.187.524,0,.6-.15.824-.3.674-.487.674-.487-.749.637-1.086.487-.6.15-.749,0-.225.337-.187,0a3.881,3.881,0,0,1,.712-1.124l-.937.637-.412.487s-.674-.112-.75-.3-.787-.449-.787-.449-.449-.187-.224-.375a1.418,1.418,0,0,1,.6-.337,2.168,2.168,0,0,1,.749,0,1.809,1.809,0,0,0,.825,0c.112-.037.225-.262.225-.262h-1.386c-.075,0-.749.262-.412,0s.674-.3.749-.562-.449-.225,0-.487.263-.262.413-.375-.413,0-.413,0-.3.187-.337,0-.225-.3,0-.45.337-.749.337-.749-.075.487-.337.524,0,.037-.412.225.113.3-.6.225-.9-.262-1.124-.225a2.2,2.2,0,0,1-.525,0,5.008,5.008,0,0,1,0-.749,3.807,3.807,0,0,0,.712,0c.412,0,.038.15.6,0s.449-.487.936-.487.562-.112.749,0,.525.524.637.487.45-.15.412-.3.524-.749.524-.749H2089.2c-.449,0-.6.262-.75,0a2.965,2.965,0,0,0-.412-.524s-.112.075-.6,0a6.484,6.484,0,0,1-.937-.225l.937-.187a.394.394,0,0,1,.412-.187c.3.037.45-.112.6,0s.188.112.337,0a5.59,5.59,0,0,1,.637-.262c.225-.112.412-.225.412-.225l-2.173.225-6.667.637-6.705.749s-11.8,2.51-12.1,2.66-11.013,3.109-11.013,3.109Z" transform="translate(-2033.899 -694.096)" fill="#ec1b24"/></svg>