<svg xmlns="http://www.w3.org/2000/svg" width="622.588" height="557.834" viewBox="0 0 622.588 557.834"><g transform="translate(0.002)"><g transform="translate(169.992)"><g transform="translate(280.242 267.408)"><path d="M643.75,1073.5v34.195h24.909l-.59-22.934L643.75,1073.5" transform="translate(-549.37 -828.284)" fill="#ef4545" stroke="#707070" stroke-width="1"/><path d="M620.247,955.491l28.181,32.073L647.073,881.5H594.306L589,957.26l33.311,39.8,16.213,15.034,15.034-18.571-33.311-38.027V906.557" transform="translate(-526.899 -749.481)" fill="#ef4545" stroke="#707070" stroke-width="1"/><path d="M634.5,921.409c1.032-.295,8.254,0,8.254,0" transform="translate(-545.573 -764.628)" fill="none" stroke="#707070" stroke-width="1"/><path d="M596.75,894.778c.59,0,5.6-.442,7.664-3.537s2.358-8.991,2.358-8.991" transform="translate(-530.08 -749.789)" fill="none" stroke="#707070" stroke-width="1"/><path d="M671.569,881.5s-2.653,12.086,8.991,16.655" transform="translate(-560.681 -749.481)" fill="none" stroke="#707070" stroke-width="1"/><path d="M676,1094.607l3.39,2.653,3.1,22.7,12.086-26.088-12.086-7.37Z" transform="translate(-562.606 -833.619)" fill="#404040"/><path d="M652.756,1131.5l-2.506,8.4h19.456l-2.948-8.4Z" transform="translate(-552.038 -852.089)" fill="#404040"/><path d="M679.455,1097l6.485-8.372-3.537-2.83-6.6,8.49Z" transform="translate(-562.524 -833.332)" fill="#fff" stroke="#707070" stroke-width="1"/><path d="M595.159,724.119a25.492,25.492,0,0,1,16.9,13.167c5.7,11.2,6.878,14.15,7.861,16.508a10.341,10.341,0,0,1,.983,3.144S641.146,731,641.932,730.6s10.023,6.682,10.023,6.682-7.861,24.369-14.739,32.426-9.237,9.433-12.577,10.416-5.9,1.179-8.057,0-5.7-3.341-5.7-3.341v40.091h-54.24l1.179-66.425s-28.1,1.572-40.68,0a155.344,155.344,0,0,1-18.473-3.144l.983-13.953s24.762-.2,34.785-1.179,32.23-4.324,34.981-5.7,7.271-3.144,7.271-3.144l6.092,5.7,9.04-5.7Z" transform="translate(-489.823 -684.564)" fill="none" stroke="#707070" stroke-width="1"/><path d="M623.667,725.846l5.11,9.63,5.5-6.092,4.913,6.092,7.664-10.809" transform="translate(-541.127 -685.111)" fill="none" stroke="#707070" stroke-width="1"/><circle cx="1.5" cy="1.5" r="1.5" transform="translate(91.766 47.592)" fill="#404040"/><ellipse cx="1.5" cy="1" rx="1.5" ry="1" transform="translate(91.766 53.592)" fill="#404040"/><path d="M689,801.9V785" transform="translate(-567.942 -709.874)" fill="none" stroke="#707070" stroke-width="1"/><path d="M599.333,765.075V758" transform="translate(-531.14 -698.792)" fill="none" stroke="#707070" stroke-width="1"/><path d="M492.51,745a18.335,18.335,0,0,1-4.913,0,10.975,10.975,0,0,0-3.93,0l5.9-18.67s1.179,2.555,1.769,3.93,1.965,5.7,1.965,5.7Z" transform="translate(-483.667 -685.795)" fill="none" stroke="#707070" stroke-width="1"/><path d="M641.1,702.723c.035-.19-.736-8.532-.663-9.433.26-3.21,1.548-3.292,1.548-3.292a4.143,4.143,0,0,0,1.965-2.063c.491-1.376,2.162-5.8-1.572-6.092s-1.941-.565-1.941-.565l-.319-7.689L622.23,671.8v10.73s-2.948-.983-3.243,3.439S622.23,690,622.23,690s.727,5.149,2.889,6.918,1.238,1.336,1.533,1.631,0,4.176,0,4.176" transform="translate(-539.2 -663.413)" fill="none" stroke="#707070" stroke-width="1"/><path d="M640.917,675.748s1.258-6.643.786-8.883-2.555-1.612-2.555-2.791.255-9.2-12.577-5.562-10.711,4.225-11.5,4.422,2.142.668,2.85,1.729a4.529,4.529,0,0,1,.825,2.594,37.187,37.187,0,0,1,0,5.188c0,.354.354,4.024.354,4.024l1.769.59s.118-6.736.59-7.679.354-2.948,2-2.122a34.428,34.428,0,0,0,8.49,2.122,11.118,11.118,0,0,0,3.537-.59c1.179-.354,1.415-1.769,1.887,0a54.107,54.107,0,0,1,.708,6.957Z" transform="translate(-537.546 -657.575)" fill="#404040"/><path d="M0,1.092s2.472-2.457,3.832,0" transform="matrix(0.978, 0.208, -0.208, 0.978, 95.174, 15.673)" fill="none" stroke="#707070" stroke-width="1"/><path d="M0,1.092s2.472-2.457,3.832,0" transform="translate(85.511 16.54) rotate(-14)" fill="none" stroke="#707070" stroke-width="1"/><circle cx="0.5" cy="0.5" r="0.5" transform="translate(96.766 18.592)" fill="#404040"/><circle cx="0.5" cy="0.5" r="0.5" transform="translate(87.766 18.592)" fill="#404040"/><path d="M639.525,689c0,.393-.983,6.682-.59,7.173s1.867-.1,2.457,0" transform="translate(-547.356 -670.473)" fill="none" stroke="#707070" stroke-width="1"/><path d="M632,705.519a5.571,5.571,0,0,0,2.594,2.26,5.974,5.974,0,0,0,5.291-.369c1.179-.933,3.631-3.641,1.941-2.579s-1.351,1.032-3.341,1.376a13.828,13.828,0,0,1-4.618,0C632.246,706.035,632,705.519,632,705.519Z" transform="translate(-544.547 -676.871)" fill="#404040"/><path d="M636,712.5s.491.589,2.457.491" transform="translate(-546.189 -680.118)" fill="none" stroke="#707070" stroke-width="1"/><path d="M629.375,716a18.91,18.91,0,0,0,4.717,1.572,6.984,6.984,0,0,0,2.825,0" transform="translate(-542.291 -681.554)" fill="none" stroke="#707070" stroke-width="1"/><path d="M744.629,726.233a30.307,30.307,0,0,1-.505-5.39,9.183,9.183,0,0,1,1.179-3.622c.589-1.095.337-1.769,1.516-1.769a9.106,9.106,0,0,1,3.032.926l.926,1.769s0,.253-1.432,0-1.937.421-1.937.421a5.723,5.723,0,0,1,0,1.769c-.168.674,1.095,1.684,1.348,1.684a4.86,4.86,0,0,0,2.021-2.611c.084-1.011-1.263-2.779,0-3.032a2.5,2.5,0,0,1,2.19.842,2.721,2.721,0,0,0-.421-2.358c-.842-1.179-1.348-3.369-1.011-3.622s-.084-.927,1.011,0a7.5,7.5,0,0,1,1.685,2.106s.421-1.348.926-1.516,2.106,2.274,2.021,3.622.168,5.306,0,6.569-1.179,2.527-2.021,4.211-2.527,2.7-2.611,3.537a2.613,2.613,0,0,1-1.011,1.516Z" transform="translate(-590.555 -679.407)" fill="none" stroke="#707070" stroke-width="1"/><path d="M621.685,691.769s-2.122-.354-2.358.943a8.232,8.232,0,0,0,0,2.594" transform="translate(-538.124 -671.591)" fill="none" stroke="#707070" stroke-width="1"/><path d="M619.222,691.769s2.122-.354,2.358.943a8.232,8.232,0,0,1,0,2.594" transform="translate(-517.489 -672.181)" fill="none" stroke="#707070" stroke-width="1"/></g><path d="M210.95,249.135h0L0,49.479A145.77,145.77,0,0,1,48.281,13.364a144.545,144.545,0,0,1,29.268-9.9,146.7,146.7,0,0,1,60.981-.513A144.535,144.535,0,0,1,190.5,24.82,145.752,145.752,0,0,1,243.15,88.76a144.584,144.584,0,0,1,8.468,27.28,146.74,146.74,0,0,1-.078,58.955,144.552,144.552,0,0,1-22.418,52.511,146.4,146.4,0,0,1-18.172,21.629Z" transform="translate(36.185 132.943)" fill="#e5e5e5" stroke="#404040" stroke-width="1"/><path d="M165.317,261.667a40.631,40.631,0,0,1-5.9,6.78A15.406,15.406,0,0,1,155,271.3l4.422,20.831a20.186,20.186,0,0,0,5.306-2.751,49.588,49.588,0,0,0,5.7-4.815Z" transform="translate(-70.888 -218.24)" fill="#e5e5e5" stroke="#707070" stroke-width="1"/><path d="M215.675,371s5.306,32.721-20.34,34.49-23.583,1.474-23.583,1.474V473.29H146.99l-5.306-62.2-2.063,62.2H112.5l1.474-84.308s.295-4.717,7.37-6.485,30.068-5.6,34.49-5.011,15.918,0,15.918,0V371Z" transform="translate(-53.445 -263.114)" fill="#ef4545" stroke="#404040" stroke-width="1"/><path d="M190.3,241.333c9.433.393,9.63.2,15.918,3.537s27.317,45.2,30.658,58.367,1.572,14.543,1.572,14.543H194.231s-.786-.2-3.93-2.948-6.682-9.63-8.254-12.774-7.075-15.525-8.057-19.063-7.468-21.028-4.52-27.12a23.413,23.413,0,0,1,7.075-8.844s4.323,6.289,5.5,6.289,2.751-3.144,4.127-4.913A72.22,72.22,0,0,0,190.3,241.333Z" transform="translate(-76.514 -209.895)" fill="#e5e5e5" stroke="#707070" stroke-width="1"/><path d="M94.48,241.333l21.814,85.684L130.64,382.83l-56.8-39.7L12.333,299.5S25.893,277.3,49.28,262.165A173.8,173.8,0,0,1,94.48,241.333Z" transform="translate(-12.333 -209.895)" fill="#404040"/><path d="M200.237,266a85.348,85.348,0,0,1-18.866,26.138c-12.774,11.791-16.7,13.953-16.7,13.953l5.9,10.809a133.893,133.893,0,0,0,18.08-9.63c11.2-6.878,22.8-18.866,23.386-19.652" transform="translate(-74.856 -220.019)" fill="#e5e5e5" stroke="#707070" stroke-width="1"/><path d="M186.018,223.025a19.175,19.175,0,0,1-2.653-6.3c-.884-3.832-1.474-5.9,0-6.485s2.653-7.37-.737-7.075-2.358,2.063-2.653.884a52.985,52.985,0,0,0-2.211-5.454c-.59-1.327-1.621-3.1-2.653-3.1s-10.465,1.032-10.465,1.032l-5.9,4.274a28.925,28.925,0,0,0,.737,4.422c.59,2.358,2.948,9.286,4.274,12.676s3.98,7.37,8.7,5.748a34.022,34.022,0,0,0,4.311-1.99" transform="translate(-72.427 -191.084)" fill="none" stroke="#707070" stroke-width="1"/><path d="M178.128,200.09a11.946,11.946,0,0,0,0-5.6c-.737-3.1-3.39-7.517-8.7-5.6s-3.832,1.179-7.075,0-6.78-1.769-9.138,2.211a7.083,7.083,0,0,0,4.274,10.76c5.306,1.621,7.959-1.621,11.054-3.832s3.685-3.685,5.306-1.769a14.416,14.416,0,0,1,2.8,6.338C176.8,203.922,178.128,200.09,178.128,200.09Z" transform="translate(-69.696 -188.009)" fill="#404040"/><path d="M185.993,544.5l2.948,8.991L163,561.3l12.528-13.118.884-3.685Z" transform="translate(-74.172 -334.324)" fill="#404040"/><path d="M128.506,544.5l3.1,8.844-25.351,7.075,12.676-12.97V544.5Z" transform="translate(-50.88 -334.324)" fill="#404040"/><path d="M175.75,211.909a2.587,2.587,0,0,1,3.685-1.179" transform="translate(-78.225 -196.586)" fill="none" stroke="#707070" stroke-width="1"/><path d="M175.75,211.909a2.587,2.587,0,0,1,3.685-1.179" transform="translate(-85.89 -194.228)" fill="none" stroke="#707070" stroke-width="1"/><ellipse cx="0.796" cy="1.327" rx="0.796" ry="1.327" transform="translate(98.28 15.948) rotate(-21)" fill="#404040"/><ellipse cx="0.796" cy="1.327" rx="0.796" ry="1.327" transform="translate(91.26 18.13) rotate(-21)" fill="#404040"/><path d="M172.5,217.667c1.444.536,1.474,3.341,1.474,3.341s-.737,3.488,0,4.078a2.286,2.286,0,0,0,2.948-.59" transform="translate(-78.071 -200.182)" fill="none" stroke="#707070" stroke-width="1"/><path d="M0,1.179c.489,0,2.847.295,3.731-1.179" transform="matrix(0.921, -0.391, 0.391, 0.921, 99.013, 28.186)" fill="none" stroke="#707070" stroke-width="1"/><path d="M196.806,211.038s3.357-1.971,2.031,2.451a4.583,4.583,0,0,1-.835,1.179" transform="translate(-88.046 -197.281)" fill="none" stroke="#707070" stroke-width="1"/><path d="M155.491,336.061a12.074,12.074,0,0,1-4.127.884c-2.063,0-2.358-1.179-4.717-.884s-3.685-.737-3.39,0,.59,1.621,1.916,1.769,1.769.737,2.506.884,0,.59-1.032,1.474a41.144,41.144,0,0,1-4.127,2.358,22.882,22.882,0,0,1-2.063,1.179s-.442.884,1.032.59,4.569-1.4,5.159-1.253.295.811-.737,1.253-2.063,1.179-3.39,1.769-1.916.737-2.063,1.474.737.147,2.063,0a10.787,10.787,0,0,0,4.127-1.474c1.621-.884,2.063,0,2.063,0a4.909,4.909,0,0,1-2.506,1.769c-1.916.737-3.1.663-2.948,1.474s.516.295,2.653,0a9.34,9.34,0,0,0,4.348-1.769,19.593,19.593,0,0,1,3.169-1.474l5.748-3.537Z" transform="translate(-64.894 -248.663)" fill="#e5e5e5" stroke="#707070" stroke-width="1"/><path d="M1429.944,729.875s1.376,1.695,1.081,3.022a3.838,3.838,0,0,1-1.4,2.1" transform="translate(-1329.226 -697.528)" fill="none" stroke="#707070" stroke-width="1"/><g transform="translate(25.155 278.148)"><path d="M-244.4,628.384s.958,3.685,0,5.38a14.946,14.946,0,0,1-2.874,3.316l.516,3.464a35.564,35.564,0,0,1,5.675-3.979c3.35-1.892,8.086-1.842,8.086-1.842v-5.067l2.007-11.864-4.939-8.643-15.447-4.273c-.175,1.381-.817,6.828-.491,8.131.393,1.572.983,1.67.491,3.341a6.6,6.6,0,0,1-.983,2.456c-.59.983-.786,1.376,0,1.572s1.67-.2,1.769.786-.1.884,0,1.769.295.393.59,1.277.393.2.688,1.769,1.376,3.636,3.439,2.948,2.948-1.474,4.127-1.769" transform="translate(396.805 -595.982)" fill="#fff" stroke="#404040" stroke-width="1"/><path d="M-251.25,598.316c.295-.442,4.569-11.054,14.887-7.959s7.959,13.855,7.959,13.855-1.179.884.884,1.032,5.454.295,4.422,9.286-1.327,5.748,0,10.023,1.474,3.242,2.211,8.4-2.211,29.478-2.211,29.478l-2.8-16.066-3.243-10.612-6.043-7.222s-1.179-7.37,1.327-10.907.884-3.1,0-5.453,1.032-6.19-1.327-6.19-2.211,4.127-2.211,4.127-1.621,4.864-2.653.884-.295-1.327-3.537-5.011S-251.25,598.316-251.25,598.316Z" transform="translate(396.137 -589.792)" fill="#404040"/><path d="M-292,874.333c.786,0,20.045.983,20.045.983V893l-25.155,52.275-12.774,26.334h-8.45v-3.144h3.537Z" transform="translate(423.67 -706.577)" fill="none" stroke="#404040" stroke-width="1"/><path d="M-239.667,876.25c1.572,0,23.583,2.8,23.583,2.8l-1.572,13.56,16.115,83.915-7.861,4.323-2.358-1.965,3.537-2.358-31.444-80.967Z" transform="translate(391.382 -707.363)" fill="none" stroke="#404040" stroke-width="1"/><path d="M-318.5,1036.734l-1.651,7.7-20.045-10.73,12.971-.708v3.734Z" transform="translate(432.644 -771.698)" fill="#404040"/><path d="M-198.264,1048.323l-8.136,5.9h21.224l-2.594-8.018-7.782,4.481Z" transform="translate(377.729 -777.116)" fill="#404040"/><path d="M-271.2,840.671l-2.8,11.5,30.51,2.653,14.887,1.769a74.158,74.158,0,0,0,3.685-16.8c.774-8.844-.59-17.687-.59-18.571s.884-.737-8.991,4.569-17.1,8.4-20.93,9.581S-271.2,840.671-271.2,840.671Z" transform="translate(405.474 -684.607)" fill="#404040"/><path d="M-255.833,670.682s5.839-12.461,7.075-13.56c.362-.322.419,4.809.983,4.323,1.681-1.449,8.745-7.271,14.15-5.11,3.636,1.277,7.125,6.25,8.057,10.367,1.769,7.812.737,20.93.737,23.73v10.76s-12.381-12.234-14.15-14-4.864-4.422-4.864-4.422,7.075-9.875,8.549-13.118S-255.833,670.682-255.833,670.682Z" transform="translate(398.018 -616.908)" fill="#e5e5e5" stroke="#707070" stroke-width="1"/><path d="M-247.333,615.474a4.11,4.11,0,0,1,3.832,1.376" transform="translate(394.529 -600.317)" fill="none" stroke="#404040" stroke-width="1"/><ellipse cx="0.5" cy="2" rx="0.5" ry="2" transform="translate(148.853 16.852)" fill="#404040"/><path d="M-247.506,635.9s-.295,2.26,2.457-.884,1.376-2.26,1.376-2.26" transform="translate(394.604 -607.378)" fill="none" stroke="#404040" stroke-width="1"/><path d="M-224.118,625.571c0,1.853-1.6,3.622-2.274,3.116a3.035,3.035,0,0,0-1.179-.59" transform="translate(386.418 -604.477)" fill="none" stroke="#404040" stroke-width="1"/><path d="M-396.773,615.437l104.943,99.379s-18.571,30.363-84.9,43.923S-497,721.007-497,721.007Z" transform="translate(497 -600.317)" fill="#ef4545" stroke="#404040" stroke-width="1"/><path d="M-271.448,658.679c4.127-1.621,6.4-.855,8.873,2.447,4.933,6.348-8.081,18.873-13,22.463-10.907,7.959-10.17,6.426-19.161,10.318s-26.973,5.748-28.742,6.043a54.673,54.673,0,0,0-7.959,2.948c-.516.295-1.474-.59,0-1.474s2.064-1.105,3.243-1.842,1.621-1.548-1.032-1.4-4.2.516-4.274-.516c.221-.811,2.506-.811,4.274-1.253s3.685-1.253,1.032-1.842-5.306-.516-5.306-1.327,3.243-.811,4.569-.663,4.618-.884,2.7-2.063-2.162-2.6-1.6-2.653,3.611,1.769,4.348,2.653.884,1.916,2.064,1.474,14.039-5.49,21.814-10.317,11.556-9.138,14.5-11.939S-275.575,660.3-271.448,658.679Z" transform="translate(429.895 -617.729)" fill="#fff" stroke="#707070" stroke-width="1"/></g></g><path d="M-361.333,1127.417l622.585-2.083" transform="translate(361.333 -570.083)" fill="none" stroke="#707070" stroke-width="1"/></g></svg>