<svg xmlns="http://www.w3.org/2000/svg" width="195.519" height="286.994" viewBox="0 0 195.519 286.994"><g transform="translate(0 0.23)"><path d="M-586.333,778.02c.295-.59,4.029-8.844,3.832-11.791s-4.667-11.005,3.439-17.933,18.719.59,20.635,5.159-1.277-.393-2.162,0,.688-2.555.884,1.376-.983,5.847-.884,6.436,2.653,6.338,2.162,6.731a3.339,3.339,0,0,1-2.162.59c-.983,0-1.376.295-1.474,1.474a14.689,14.689,0,0,0,0,2.26s.2.393-.688,1.277-1.277.786-1.376,1.572-1.179,2.948-2.751,2.85-5.6-3.046-7.271-3.636" transform="translate(640.77 -745.164)" fill="none" stroke="#707070" stroke-width="1"/><path d="M-597.911,624.5a20.391,20.391,0,0,0-.884,4.422,9.759,9.759,0,0,0,0,2.653" transform="translate(668.905 -592.921)" fill="none" stroke="#707070" stroke-width="1"/><path d="M-656.224,1004l-22.443,121.844h5.11v12.185h27.513l-15.722-10.612h4.52l29.282-104.157,8.883-17.49h.707l-8.523,16.9,16.62,32.426-3.93,72.321h3.93v10.612h25.941l-17.1-10.612h8.844v-1.572l9.826-75.858L-601.748,1004Z" transform="translate(678.667 -851.265)" fill="#404040"/><path d="M-610.281,798.5s-13.56,12.676-20.93,41.565-12.086,68.1-12.381,72.812a37.934,37.934,0,0,0,0,6.78h56.6V887.23l-2.457-46.183a29.411,29.411,0,0,1,4.717-6.485,115.937,115.937,0,0,1,8.844-8.254s-6.682-11.693-16.115-19.652S-610.281,798.5-610.281,798.5Z" transform="translate(664.324 -766.921)" fill="#ef4545" stroke="#404040" stroke-width="1"/><path d="M-605.29,641.159l116.735-9.826-93.938,111.625s-22.6-22.8-35.177-45.4S-633,644.893-633,644.893l24.565,26.138,13.56-15.329Z" transform="translate(682.917 -595.726)" fill="#e5e5e5" stroke="#707070" stroke-width="1"/><path d="M-578.3,672.667s37.339,41.27,39.108,41.663,4.52.393,5.9.786,1.965,1.376,2.751,1.965a1.231,1.231,0,0,1,0,2.122c-.825.354-2.751-.747-3.734-.55s0,.786.983,2.162,1.769,2.751,1.769,2.751a3.217,3.217,0,0,1-1.14,3.184c-.745.545-2.745,2.749-4.6,3.5-1.8.728-3.537.634-3.537,0,0-1.179.825-2.751-.55-4.323a62.458,62.458,0,0,0-5.11-5.11c-1.179-.983-37.536-26.334-45.2-33.212a30.387,30.387,0,0,1,3.734-5.5c2.358-2.751,4.717-6.092,6.682-7.271A16.522,16.522,0,0,0-578.3,672.667Z" transform="translate(665.952 -612.69)" fill="#fff" stroke="#707070" stroke-width="1"/><path d="M-565.279,755.1s-5.455.5-5.394,1.4c.087,1.282.3,6.061,0,6.953a2.534,2.534,0,0,1-1.877,1.572s-.54-4.96-1.769-6.289-1.772-1.329-2.362,0a13.885,13.885,0,0,0-.782,3.548s.393,3.339-.393,4.9c-.9,1.8-3.082,1.912-3.144.983.2-5.11-4.962-13.413,3.144-20.34,4.759-4.066,10.77-3.336,15.132-.884,2.826,1.586,5.34,3.458,6.132,5.345,1.916,4.569.059,2.417-.825,2.81s-6.289-.2-7.861,0" transform="translate(639.172 -744.937)" fill="#404040"/><path d="M-897.591,605.851s-2.712.354-4.009-1.651" transform="translate(975.925 -578.104)" fill="none" stroke="#707070" stroke-width="1"/><path d="M-902.8,581.329a4.258,4.258,0,0,1,3.3-1.533" transform="translate(977.597 -566.906)" fill="none" stroke="#707070" stroke-width="1"/><g transform="translate(77.384 14.61)" fill="#fff" stroke="#707070" stroke-width="1"><ellipse cx="0.5" cy="1.5" rx="0.5" ry="1.5" stroke="none"/><ellipse cx="0.5" cy="1.5" ry="1" fill="none"/></g><path d="M-944.6,635.9a10.62,10.62,0,0,1-1.965-9.237" transform="translate(994.516 -586.735)" fill="none" stroke="#707070" stroke-width="1"/><path d="M-809.8,756.409s.943-2.712,0-4.009" transform="translate(938.247 -638.93)" fill="none" stroke="#707070" stroke-width="1"/><path d="M-809.8,756.409s.943-2.712,0-4.009" transform="translate(940.606 -640.109)" fill="none" stroke="#707070" stroke-width="1"/><path d="M-809.8,756.409s.943-2.712,0-4.009" transform="translate(942.374 -641.878)" fill="none" stroke="#707070" stroke-width="1"/><path d="M-416.2,642.985-433,636.5" transform="translate(603.778 -599.025)" fill="none" stroke="#707070" stroke-width="1"/><path d="M-422.969,640.817-449.5,630.5" transform="translate(606.424 -591.846)" fill="none" stroke="#707070" stroke-width="1"/><path d="M-429.895,637.944-463.5,623.5" transform="translate(608.043 -583.667)" fill="none" stroke="#707070" stroke-width="1"/><path d="M-434.051,635.071-476.5,616.5" transform="translate(608.072 -575.488)" fill="none" stroke="#707070" stroke-width="1"/><path d="M-439.8,632.2l-50.7-22.7" transform="translate(609.691 -567.309)" fill="none" stroke="#707070" stroke-width="1"/><path d="M-445.748,629.12-505,602" transform="translate(610.926 -558.924)" fill="none" stroke="#707070" stroke-width="1"/><path d="M-451.289,626.247-518.5,595" transform="translate(611.75 -550.745)" fill="none" stroke="#707070" stroke-width="1"/><path d="M-457.651,622.553-534,586" transform="translate(613.395 -540.566)" fill="none" stroke="#707070" stroke-width="1"/><path d="M-449.853,626.042-515,594.5" transform="translate(600.291 -538.159)" fill="none" stroke="#707070" stroke-width="1"/><path d="M-438.155,630.967-486.5,606.5" transform="translate(583.288 -536.599)" fill="none" stroke="#707070" stroke-width="1"/><path d="M-426.932,636.713-457,620.5" transform="translate(566.463 -536.449)" fill="none" stroke="#707070" stroke-width="1"/><path d="M-443.657,627.376-497.75,597.75" transform="translate(551.352 -527.702)" fill="none" stroke="#707070" stroke-width="1"/><path d="M-428.61,638.585-497,601" transform="translate(553.402 -520.782)" fill="none" stroke="#707070" stroke-width="1"/><path d="M-422.864,642.074-483,609.5" transform="translate(542.94 -518.375)" fill="none" stroke="#707070" stroke-width="1"/><path d="M-415.681,645.768-465.5,618.5" transform="translate(531.04 -516.173)" fill="none" stroke="#707070" stroke-width="1"/><path d="M-407.37,650.282-445.25,629.5" transform="translate(518.013 -515.381)" fill="none" stroke="#707070" stroke-width="1"/><path d="M-397.52,655.413-421.25,642" transform="translate(504.035 -514.616)" fill="none" stroke="#707070" stroke-width="1"/><path d="M-392.608,659.331-410,649.75" transform="translate(461.686 -589.724)" fill="none" stroke="#707070" stroke-width="1"/><path d="M-921.3,584.4a3.977,3.977,0,0,0-.737,3.007" transform="translate(984.924 -570.567)" fill="none" stroke="#707070" stroke-width="1"/></g></svg>