<svg xmlns="http://www.w3.org/2000/svg" width="553.954" height="114.829" viewBox="0 0 553.954 114.829"><g transform="translate(0.5 0.286)"><path d="M1770,3067.333v5.914" transform="translate(-1770 -3067.333)" fill="none" stroke="#cfcfcf" stroke-width="1"/><path d="M1770,3067.333v5.914" transform="translate(-1705.014 -3067.333)" fill="none" stroke="#cfcfcf" stroke-width="1"/><path d="M1770,3067.333v5.914" transform="translate(-1632.047 -3067.333)" fill="none" stroke="#cfcfcf" stroke-width="1"/><path d="M1770,3067.333v5.914" transform="translate(-1565.92 -3067.333)" fill="none" stroke="#cfcfcf" stroke-width="1"/><path d="M1770,3067.333v5.914" transform="translate(-1499.794 -3067.333)" fill="none" stroke="#cfcfcf" stroke-width="1"/><path d="M1770,3067.333v5.914" transform="translate(-1427.967 -3067.333)" fill="none" stroke="#cfcfcf" stroke-width="1"/><path d="M1770,3067.333v5.914" transform="translate(-1356.14 -3067.333)" fill="none" stroke="#cfcfcf" stroke-width="1"/><path d="M1770,3067.333v5.914" transform="translate(-1284.313 -3067.333)" fill="none" stroke="#cfcfcf" stroke-width="1"/><path d="M1770,3067.333v5.914" transform="translate(-1217.046 -3067.333)" fill="none" stroke="#cfcfcf" stroke-width="1"/><g transform="translate(0 0.214)"><text transform="translate(1 111.329)" font-size="13" font-family="Helvetica"><tspan x="0" y="0">Исследование НИУ ВШЭ «Участие россиян в денежных пожертвованиях», 2019</tspan></text><g transform="translate(0 -381.671)"><text transform="translate(44 423)" fill="#242424" font-size="14" font-family="Helvetica"><tspan x="-31.145" y="0">2007</tspan></text><text transform="translate(115 422)" fill="#242424" font-size="14" font-family="Helvetica"><tspan x="-31.145" y="0">2009</tspan></text><text transform="translate(185 422)" fill="#242424" font-size="14" font-family="Helvetica"><tspan x="-31.145" y="0">2010</tspan></text><text transform="translate(253 422)" fill="#242424" font-size="14" font-family="Helvetica"><tspan x="-30.112" y="0">2011</tspan></text><text transform="translate(322 422)" fill="#242424" font-size="14" font-family="Helvetica"><tspan x="-31.145" y="0">2014</tspan></text><text transform="translate(392 422)" fill="#242424" font-size="14" font-family="Helvetica"><tspan x="-31.145" y="0">2015</tspan></text><text transform="translate(461 422)" fill="#242424" font-size="14" font-family="Helvetica"><tspan x="-31.145" y="0">2017</tspan></text><text transform="translate(531 422)" fill="#242424" font-size="14" font-family="Helvetica"><tspan x="-31.145" y="0">2019</tspan></text><path d="M1774,3068h553.333" transform="translate(-1774 -2686.329)" fill="none" stroke="#cfcfcf" stroke-width="1"/></g></g></g></svg>