<svg xmlns="http://www.w3.org/2000/svg" width="578" height="455" viewBox="0 0 578 455"><text transform="translate(0 14)" font-size="12" font-family="Helvetica"><tspan x="0" y="0">Млн.</tspan></text><text transform="translate(29 15)" font-size="16" font-family=".HelveticaNeueDeskInterface-Regular, '.Helvetica Neue DeskInterface'"><tspan x="0" y="0">₽</tspan></text><text transform="translate(103 452)" fill="#242424" font-size="13" font-family="Helvetica"><tspan x="-28.92" y="0">2013</tspan></text><text transform="translate(218 178)" fill="#8a8080" font-size="14" font-family="Helvetica"><tspan x="-27.248" y="0">71.2</tspan></text><text transform="translate(333 132)" fill="#bb6969" font-size="14" font-family="Helvetica"><tspan x="-23.358" y="0">138</tspan></text><text transform="translate(454 92)" fill="#e34545" font-size="14" font-family="Helvetica"><tspan x="-35.034" y="0">246.5</tspan></text><text transform="translate(578 23)" fill="#f11616" font-size="14" font-family="Helvetica"><tspan x="-35.034" y="0">348.5</tspan></text><text transform="translate(223 451)" fill="#242424" font-size="13" font-family="Helvetica"><tspan x="-28.92" y="0">2014</tspan></text><text transform="translate(339 452)" fill="#242424" font-size="13" font-family="Helvetica"><tspan x="-28.92" y="0">2015</tspan></text><text transform="translate(453 452)" fill="#242424" font-size="13" font-family="Helvetica"><tspan x="-28.92" y="0">2016</tspan></text><text transform="translate(572 452)" fill="#242424" font-size="13" font-family="Helvetica"><tspan x="-28.92" y="0">2017</tspan></text><path d="M1774,3068.786h526.3" transform="translate(-1744.556 -2655.329)" fill="none" stroke="#cfcfcf" stroke-width="1"/><path d="M1770,3067.333v5.914" transform="translate(-1648.804 -2654.876)" fill="none" stroke="#cfcfcf" stroke-width="1"/><path d="M1770,3067.333v5.914" transform="translate(-1534.445 -2654.876)" fill="none" stroke="#cfcfcf" stroke-width="1"/><path d="M1770,3067.333v5.914" transform="translate(-1425.368 -2654.876)" fill="none" stroke="#cfcfcf" stroke-width="1"/><path d="M1770,3067.333v5.914" transform="translate(-1309.292 -2654.876)" fill="none" stroke="#cfcfcf" stroke-width="1"/><path d="M1797,3105.457V2724" transform="translate(-1767.556 -2693)" fill="none" stroke="#a5a5a5" stroke-width="1" opacity="0.57"/><path d="M1797,3105.457V2724" transform="translate(-1706.524 -2693)" fill="none" stroke="#dcdcdc" stroke-width="1" opacity="0.57"/><path d="M1797,3105.457V2724" transform="translate(-1650.441 -2693)" fill="none" stroke="#dcdcdc" stroke-width="1" opacity="0.57"/><path d="M1797,3105.457V2724" transform="translate(-1589.76 -2692)" fill="none" stroke="#dcdcdc" stroke-width="1" opacity="0.57"/><path d="M1797,3105.457V2724" transform="translate(-1530.625 -2693)" fill="none" stroke="#dcdcdc" stroke-width="1" opacity="0.57"/><path d="M1797,3108.457V2724" transform="translate(-1473.593 -2693)" fill="none" stroke="#dcdcdc" stroke-width="1" opacity="0.57"/><path d="M1798,3108.457V2724" transform="translate(-1417.108 -2693)" fill="none" stroke="#dcdcdc" stroke-width="1" opacity="0.57"/><path d="M1797,3108.457V2724" transform="translate(-1358.426 -2695)" fill="none" stroke="#dcdcdc" stroke-width="1" opacity="0.57"/><path d="M1800,3108.457V2724" transform="translate(-1302.941 -2696)" fill="none" stroke="#dcdcdc" stroke-width="1" opacity="0.57"/><path d="M1797,3107.457V2724" transform="translate(-1241.26 -2694)" fill="none" stroke="#dcdcdc" stroke-width="1" opacity="0.57"/><path d="M2549.333,3125.333l60.917-39.833L2728.667,2968l114-54.667,116-31.333L3076,2804.667" transform="translate(-2520 -2769)" fill="none" stroke="#c17474" stroke-linecap="round" stroke-width="2"/><path d="M1797.073,2820.207V2724" transform="translate(-1706.573 -2406.75)" fill="none" stroke="#4d4d4d" stroke-width="1" opacity="0.57"/><path d="M1797.26,2937.124V2724" transform="translate(-1590.26 -2523.667)" fill="none" stroke="#796d6d" stroke-width="1" opacity="0.57"/><path d="M1797.093,2994.79V2724" transform="translate(-1473.593 -2580.333)" fill="none" stroke="#d27575" stroke-width="1" opacity="0.57"/><path d="M1797,3025.123V2724" transform="translate(-1358.426 -2611.667)" fill="none" stroke="#d93434" stroke-width="1" opacity="0.57"/><path d="M1797,3101.789V2724" transform="translate(-1241.426 -2688.333)" fill="none" stroke="#f61919" stroke-width="1" opacity="0.57"/><text transform="translate(104 249)" fill="#7f7f7f" font-size="14" font-family="Helvetica"><tspan x="-27.248" y="0">23.4</tspan></text></svg>